<svg xmlns="http://www.w3.org/2000/svg" width="640" height="320" font-family="Segoe UI, system-ui, sans-serif" viewBox="0 0 1280 640">
  <circle cx="260" cy="320" r="200" fill="hsl(53, 80%, 50%)"/>
  <path fill="#0006" stroke="#000" stroke-width="27" d="M155.25 375.697V270c0-4.17 2.25-8.016 5.884-10.06l.209-.117 96.752-54.424.736-.414a9.01 9.01 0 0 1 8.838 0l98.323 55.307a10.32 10.32 0 0 1 5.258 8.99v106.415a10.77 10.77 0 0 1-5.301 9.278l-97.583 57.51a10.08 10.08 0 0 1-10.233 0l-97.582-57.51a10.77 10.77 0 0 1-5.301-9.278Zm108 69.803V324m0 0-108-60.75m216 0-108 60.75"/>
  <text x="240" y="120" fill="#c9d1d9" font-size="100" font-weight="bold" transform="matrix(1.6 0 0 1.6 120 120)">
    The Box
  </text>
  <text x="242" y="170" fill="#999" font-size="50" font-style="italic" transform="matrix(1.6 0 0 1.6 120 120)">
    Signature Edition
  </text>
  <text x="244" y="214" fill="#c9d1d9" font-size="24" transform="matrix(1.6 0 0 1.6 120 120)">
    Secure, convenient, fast &amp; free forever!
  </text>
  <text y="-100">
    8===D
  </text>
</svg>
